# xmcd
#
# Track frame offsets: 
#        150
#        18854
#        34892
#        56929
#        77642
#        108819
#        128941
#        150948
#        174553
#        197238
#
# Disc length: 2934 seconds
#
# Revision: 1
# Processed by: cddbd v1.5.2PL0 Copyright (c) Steve Scherf et al.
# Submitted via: ExactAudioCopyFreeDBPlugin 1.0
#
DISCID=790b740a
DTITLE=Malted Milk - Peaches, ice cream and wine
DYEAR=2000
DGENRE=Blues
TTITLE0=Willy's boogie
TTITLE1=Straight woman blues
TTITLE2=Mother-in-law
TTITLE3=Jumpin' jack swing
TTITLE4=Blues devils
TTITLE5=Peaches, ice cream and wine
TTITLE6=Give me back my blues
TTITLE7=Sadie
TTITLE8=Cold Women
TTITLE9=Come Babe
EXTD=French blues \n1st Album (2000)
EXTT0=
EXTT1=
EXTT2=
EXTT3=
EXTT4=
EXTT5=
EXTT6=
EXTT7=
EXTT8=
EXTT9=
PLAYORDER=
